<svg width="138" height="20" fill="none" xmlns="http://www.w3.org/2000/svg"><path d="M15.078 1.514v1.719l-1.523.293v12.207h-2.842L4.97 6.163l-.059.01v7.558l1.524.293v1.709H.546v-1.71l1.515-.292V3.526L.547 3.233V1.514h4.365l5.742 9.57.059-.01V3.527l-1.524-.293v-1.72h5.889zm6.045 14.424c-1.523 0-2.74-.488-3.652-1.465-.912-.976-1.367-2.217-1.367-3.72v-.391c0-1.57.43-2.862 1.289-3.877.866-1.016 2.024-1.52 3.476-1.514 1.426 0 2.533.43 3.32 1.29.788.859 1.182 2.02 1.182 3.486v1.552h-6.308l-.02.059c.052.697.283 1.27.693 1.719.417.449.98.674 1.69.674.631 0 1.155-.062 1.572-.186.417-.13.872-.332 1.367-.605l.772 1.757c-.436.345-1.003.635-1.7.87-.69.234-1.461.351-2.314.351zm-.254-8.77c-.527 0-.944.202-1.25.606-.306.404-.495.934-.566 1.592l.029.049h3.496V9.16c0-.606-.143-1.088-.43-1.446-.28-.364-.706-.547-1.279-.547zm20.918-.283l-1.064.137-2.207 8.71h-2.383L34.17 9.445h-.059l-1.963 6.289h-2.373L27.56 7.022l-1.065-.137V5.167h4.785v1.718l-1.123.215.996 4.834h.059l1.973-6.767h1.914l1.992 6.787h.058l.987-4.844-1.133-.225V5.167h4.785v1.718zm9.6 1.914h-1.914l-.303-1.318a2.487 2.487 0 00-.742-.39 2.899 2.899 0 00-.977-.157c-.501 0-.898.114-1.191.342-.293.221-.44.501-.44.84 0 .319.14.586.42.8.28.209.84.394 1.68.557 1.308.26 2.279.645 2.91 1.152.632.502.947 1.195.947 2.08 0 .951-.41 1.73-1.23 2.335-.814.599-1.888.898-3.223.898a6.885 6.885 0 01-2.246-.352 5.813 5.813 0 01-1.806-1.025l-.03-2.373h1.992l.391 1.377c.17.143.4.25.693.322.293.065.6.098.918.098.58 0 1.02-.104 1.319-.313a.976.976 0 00.459-.85c0-.312-.153-.582-.46-.81-.305-.228-.869-.43-1.689-.605-1.243-.254-2.184-.629-2.822-1.123-.632-.502-.947-1.182-.947-2.041 0-.886.364-1.647 1.094-2.285.729-.645 1.767-.967 3.115-.967.82 0 1.595.11 2.324.332.736.221 1.312.504 1.728.85l.03 2.626zm1.455 5.225l1.015-.147 4.327-12.363h2.92L65.4 13.877l1.016.147v1.709h-4.844v-1.71l.987-.175-.625-1.953h-4.61l-.625 1.953.986.176v1.709h-4.843v-1.71zm5.156-4.229h3.262l-1.602-5.01H59.6l-1.602 5.01zm9.277 4.229l1.368-.293V7.178l-1.514-.293V5.167h4.17l.127 1.513c.351-.54.784-.96 1.299-1.26.514-.3 1.09-.449 1.728-.449 1.068 0 1.901.335 2.5 1.006.6.67.899 1.722.899 3.154v4.6l1.367.293v1.709h-5.45v-1.71l1.221-.292v-4.59c0-.71-.143-1.21-.43-1.504-.286-.3-.719-.449-1.298-.449-.378 0-.716.078-1.016.234-.3.15-.55.365-.752.645v5.664l1.153.293v1.709h-5.372v-1.71zm19.58 1.709a4.465 4.465 0 01-.342-1.104 3.89 3.89 0 01-1.24.948c-.481.24-1.035.361-1.66.361-1.035 0-1.858-.28-2.47-.84-.606-.566-.909-1.335-.909-2.305 0-.99.398-1.754 1.192-2.294.794-.54 1.96-.811 3.496-.811h1.455V8.653c0-.508-.146-.902-.44-1.182-.293-.28-.725-.42-1.298-.42-.326 0-.616.04-.87.117a2.18 2.18 0 00-.615.264l-.185 1.133H80.82l.01-2.344a8.031 8.031 0 011.787-.888 6.54 6.54 0 012.207-.362c1.309 0 2.37.322 3.184.967.82.638 1.23 1.55 1.23 2.734v4.825c.007.143.02.28.04.41l.868.117v1.709h-3.29zm-2.47-1.904a2.5 2.5 0 001.172-.274c.351-.189.625-.423.82-.703v-1.611h-1.455c-.606 0-1.065.143-1.377.43-.313.28-.469.618-.469 1.015 0 .358.114.638.342.84.234.202.557.303.967.303zM90.82 2.217V.5h4.375v13.23l1.377.293v1.709h-5.605v-1.71l1.377-.292V2.511l-1.524-.294zm17.627 4.668l-.986.147-3.887 10.283c-.306.762-.716 1.4-1.23 1.914-.508.514-1.276.771-2.305.771a3.82 3.82 0 01-.683-.058 14.49 14.49 0 01-.743-.166l.332-2.08.284.039c.097.013.182.02.253.02.476 0 .84-.118 1.094-.352.254-.228.449-.514.586-.86l.322-.8-3.35-8.702-.986-.156V5.167h5.176v1.718l-1.181.196 1.445 4.218.146.762.059.01 1.67-4.99-1.192-.196V5.167h5.176v1.718zm4.678 6.66h2.949l.117-1.406h2.178v3.594h-8.779v-1.68l5.029-6.68h-2.588l-.107 1.397h-2.188V5.167h8.457v1.63l-5.068 6.748zm11.572 2.393c-1.523 0-2.741-.488-3.652-1.465-.912-.976-1.367-2.217-1.367-3.72v-.391c0-1.57.429-2.862 1.289-3.877.866-1.016 2.025-1.52 3.476-1.514 1.426 0 2.533.43 3.321 1.29.787.859 1.181 2.02 1.181 3.486v1.552h-6.308l-.02.059c.052.697.283 1.27.694 1.719.416.449.979.674 1.689.674.632 0 1.156-.062 1.572-.186.417-.13.873-.332 1.367-.605l.772 1.757c-.436.345-1.003.635-1.699.87-.69.234-1.462.351-2.315.351zm-.254-8.77c-.527 0-.944.202-1.25.606-.306.404-.494.934-.566 1.592l.029.049h3.496V9.16c0-.606-.143-1.088-.429-1.446-.28-.364-.707-.547-1.28-.547zm6.075 6.856l1.367-.293V7.178l-1.514-.293V5.167h4.17l.127 1.542c.247-.546.566-.973.957-1.279a2.139 2.139 0 011.357-.459c.15 0 .306.013.469.04.169.019.309.045.42.077l-.303 2.598-1.172-.03c-.416 0-.761.082-1.035.245a1.585 1.585 0 00-.625.693v5.137l1.368.293v1.709h-5.586v-1.71z" fill="#1A1B22"/></svg>