<svg width="138" height="20" viewBox="0 0 138 20" fill="none" xmlns="http://www.w3.org/2000/svg">
<path d="M15.0781 1.51416V3.23291L13.5547 3.52588V15.7329H10.7129L4.9707 6.1626L4.91211 6.17236V13.731L6.43555 14.0239V15.7329H0.546875V14.0239L2.06055 13.731V3.52588L0.546875 3.23291V1.51416H2.06055H4.91211L10.6543 11.0845L10.7129 11.0747V3.52588L9.18945 3.23291V1.51416H13.5547H15.0781ZM21.123 15.938C19.5996 15.938 18.3822 15.4497 17.4707 14.4731C16.5592 13.4966 16.1035 12.2563 16.1035 10.7524V10.3618C16.1035 8.79281 16.5332 7.50049 17.3926 6.48486C18.2585 5.46924 19.4173 4.96468 20.8691 4.97119C22.2949 4.97119 23.4017 5.40088 24.1895 6.26025C24.9772 7.11963 25.3711 8.28174 25.3711 9.74658V11.2993H19.0625L19.043 11.3579C19.0951 12.0545 19.3262 12.6274 19.7363 13.0767C20.153 13.5259 20.7161 13.7505 21.4258 13.7505C22.0573 13.7505 22.5814 13.6886 22.998 13.5649C23.4147 13.4347 23.8704 13.2329 24.3652 12.9595L25.1367 14.7173C24.7005 15.0623 24.1341 15.3521 23.4375 15.5864C22.7474 15.8208 21.9759 15.938 21.123 15.938ZM20.8691 7.16846C20.3418 7.16846 19.9251 7.37028 19.6191 7.77393C19.3132 8.17757 19.1243 8.70817 19.0527 9.36572L19.082 9.41455H22.5781V9.16064C22.5781 8.55518 22.4349 8.0734 22.1484 7.71533C21.8685 7.35075 21.4421 7.16846 20.8691 7.16846ZM41.7871 6.88525L40.7227 7.02197L38.5156 15.7329H36.1328L34.1699 9.44385H34.1113L32.1484 15.7329H29.7754L27.5586 7.02197L26.4941 6.88525V5.1665H31.2793V6.88525L30.1562 7.1001L31.1523 11.9341H31.2109L33.1836 5.1665H35.0977L37.0898 11.9536H37.1484L38.1348 7.10986L37.002 6.88525V5.1665H41.7871V6.88525ZM51.3867 8.79932H49.4727L49.1699 7.48096C48.9746 7.32471 48.7272 7.1945 48.4277 7.09033C48.1348 6.98617 47.8092 6.93408 47.4512 6.93408C46.9499 6.93408 46.5527 7.04801 46.2598 7.27588C45.9668 7.49723 45.8203 7.77718 45.8203 8.11572C45.8203 8.43473 45.9603 8.70166 46.2402 8.9165C46.5202 9.12484 47.0801 9.31038 47.9199 9.47314C49.2285 9.73356 50.1986 10.1177 50.8301 10.6255C51.4616 11.1268 51.7773 11.8201 51.7773 12.7056C51.7773 13.6561 51.3672 14.4341 50.5469 15.0396C49.7331 15.6385 48.6589 15.938 47.3242 15.938C46.5104 15.938 45.7617 15.8208 45.0781 15.5864C44.401 15.3455 43.7988 15.0037 43.2715 14.561L43.2422 12.188H45.2344L45.625 13.5649C45.7943 13.7082 46.0254 13.8156 46.3184 13.8872C46.6113 13.9523 46.9173 13.9849 47.2363 13.9849C47.8158 13.9849 48.2552 13.8807 48.5547 13.6724C48.8607 13.464 49.0137 13.1808 49.0137 12.8228C49.0137 12.5103 48.8607 12.2401 48.5547 12.0122C48.2487 11.7843 47.6855 11.5825 46.8652 11.4067C45.6217 11.1528 44.681 10.7785 44.043 10.2837C43.4115 9.78239 43.0957 9.10205 43.0957 8.24268C43.0957 7.35726 43.4603 6.59554 44.1895 5.95752C44.9186 5.31299 45.957 4.99072 47.3047 4.99072C48.125 4.99072 48.8997 5.1014 49.6289 5.32275C50.3646 5.54411 50.9408 5.82731 51.3574 6.17236L51.3867 8.79932ZM52.8418 14.0239L53.8574 13.8774L58.1836 1.51416H61.1035L65.4004 13.8774L66.416 14.0239V15.7329H61.5723V14.0239L62.5586 13.8481L61.9336 11.895H57.3242L56.6992 13.8481L57.6855 14.0239V15.7329H52.8418V14.0239ZM57.998 9.79541H61.2598L59.6582 4.78564H59.5996L57.998 9.79541ZM67.2754 14.0239L68.6426 13.731V7.17822L67.1289 6.88525V5.1665H71.2988L71.4258 6.68018C71.7773 6.13981 72.2103 5.71989 72.7246 5.42041C73.2389 5.12093 73.8151 4.97119 74.4531 4.97119C75.5208 4.97119 76.3542 5.30648 76.9531 5.97705C77.5521 6.64762 77.8516 7.69906 77.8516 9.13135V13.731L79.2188 14.0239V15.7329H73.7695V14.0239L74.9902 13.731V9.14111C74.9902 8.43148 74.847 7.93018 74.5605 7.63721C74.2741 7.33773 73.8411 7.18799 73.2617 7.18799C72.8841 7.18799 72.5456 7.26611 72.2461 7.42236C71.9466 7.5721 71.696 7.78695 71.4941 8.06689V13.731L72.6465 14.0239V15.7329H67.2754V14.0239ZM86.8555 15.7329C86.7773 15.5571 86.709 15.3781 86.6504 15.1958C86.5918 15.007 86.5462 14.8182 86.5137 14.6294C86.1751 15.02 85.7617 15.3358 85.2734 15.5767C84.7917 15.8175 84.2383 15.938 83.6133 15.938C82.5781 15.938 81.7546 15.658 81.1426 15.0981C80.5371 14.5317 80.2344 13.7635 80.2344 12.7935C80.2344 11.8039 80.6315 11.0389 81.4258 10.4985C82.2201 9.95817 83.3854 9.68799 84.9219 9.68799H86.377V8.65283C86.377 8.14502 86.2305 7.75114 85.9375 7.47119C85.6445 7.19124 85.2116 7.05127 84.6387 7.05127C84.3132 7.05127 84.0234 7.09033 83.7695 7.16846C83.5156 7.24007 83.3105 7.32796 83.1543 7.43213L82.9688 8.56494H80.8203L80.8301 6.22119C81.3509 5.86963 81.9466 5.5734 82.6172 5.33252C83.2943 5.09163 84.0299 4.97119 84.8242 4.97119C86.1328 4.97119 87.194 5.29346 88.0078 5.93799C88.8281 6.57601 89.2383 7.48747 89.2383 8.67236V13.0376C89.2383 13.2004 89.2383 13.3534 89.2383 13.4966C89.2448 13.6398 89.2578 13.7765 89.2773 13.9067L90.1465 14.0239V15.7329H86.8555ZM84.3848 13.8286C84.8145 13.8286 85.2051 13.7375 85.5566 13.5552C85.9082 13.3664 86.1816 13.132 86.377 12.8521V11.2407H84.9219C84.3164 11.2407 83.8574 11.384 83.5449 11.6704C83.2324 11.9504 83.0762 12.2889 83.0762 12.686C83.0762 13.0441 83.1901 13.3241 83.418 13.5259C83.6523 13.7277 83.9746 13.8286 84.3848 13.8286ZM90.8203 2.21729V0.498535H95.1953V13.731L96.5723 14.0239V15.7329H90.9668V14.0239L92.3438 13.731V2.51025L90.8203 2.21729ZM108.447 6.88525L107.461 7.03174L103.574 17.3149C103.268 18.0767 102.858 18.7147 102.344 19.229C101.836 19.7433 101.068 20.0005 100.039 20.0005C99.7982 20.0005 99.5703 19.981 99.3555 19.9419C99.1471 19.9028 98.8997 19.8475 98.6133 19.7759L98.9453 17.6958C99.0365 17.7088 99.1309 17.7218 99.2285 17.7349C99.3262 17.7479 99.4108 17.7544 99.4824 17.7544C99.9577 17.7544 100.322 17.6372 100.576 17.4028C100.83 17.175 101.025 16.8885 101.162 16.5435L101.484 15.7427L98.1348 7.0415L97.1484 6.88525V5.1665H102.324V6.88525L101.143 7.08057L102.588 11.2993L102.734 12.061L102.793 12.0708L104.463 7.08057L103.271 6.88525V5.1665H108.447V6.88525ZM113.125 13.5454H116.074L116.191 12.1392H118.369V15.7329H109.59V14.0532L114.619 7.37354H112.031L111.924 8.77002H109.736V5.1665H118.193V6.79736L113.125 13.5454ZM124.697 15.938C123.174 15.938 121.956 15.4497 121.045 14.4731C120.133 13.4966 119.678 12.2563 119.678 10.7524V10.3618C119.678 8.79281 120.107 7.50049 120.967 6.48486C121.833 5.46924 122.992 4.96468 124.443 4.97119C125.869 4.97119 126.976 5.40088 127.764 6.26025C128.551 7.11963 128.945 8.28174 128.945 9.74658V11.2993H122.637L122.617 11.3579C122.669 12.0545 122.9 12.6274 123.311 13.0767C123.727 13.5259 124.29 13.7505 125 13.7505C125.632 13.7505 126.156 13.6886 126.572 13.5649C126.989 13.4347 127.445 13.2329 127.939 12.9595L128.711 14.7173C128.275 15.0623 127.708 15.3521 127.012 15.5864C126.322 15.8208 125.55 15.938 124.697 15.938ZM124.443 7.16846C123.916 7.16846 123.499 7.37028 123.193 7.77393C122.887 8.17757 122.699 8.70817 122.627 9.36572L122.656 9.41455H126.152V9.16064C126.152 8.55518 126.009 8.0734 125.723 7.71533C125.443 7.35075 125.016 7.16846 124.443 7.16846ZM130.518 14.0239L131.885 13.731V7.17822L130.371 6.88525V5.1665H134.541L134.668 6.70947C134.915 6.1626 135.234 5.73617 135.625 5.43018C136.016 5.12419 136.468 4.97119 136.982 4.97119C137.132 4.97119 137.288 4.98421 137.451 5.01025C137.62 5.02979 137.76 5.05583 137.871 5.08838L137.568 7.68604L136.396 7.65674C135.98 7.65674 135.635 7.73812 135.361 7.90088C135.088 8.06364 134.88 8.29476 134.736 8.59424V13.731L136.104 14.0239V15.7329H130.518V14.0239Z" fill="#1A1B22"/>
</svg>
